<svg xmlns="http://www.w3.org/2000/svg" xmlns:xlink="http://www.w3.org/1999/xlink" width="1080" zoomAndPan="magnify" viewBox="0 0 810 809.999993" height="1080" preserveAspectRatio="xMidYMid meet" version="1.0"><defs><clipPath id="4cc132371f"><path d="M 169 225 L 608 225 L 608 664 L 169 664 Z M 169 225 " clip-rule="nonzero"/></clipPath><clipPath id="6f39f61684"><path d="M 509.75 225.582031 L 607.394531 566.105469 L 266.871094 663.75 L 169.226562 323.226562 Z M 509.75 225.582031 " clip-rule="nonzero"/></clipPath><clipPath id="446b1295a5"><path d="M 185 195 L 624 195 L 624 634 L 185 634 Z M 185 195 " clip-rule="nonzero"/></clipPath><clipPath id="ae75f530ce"><path d="M 525.550781 195.097656 L 623.195312 535.621094 L 282.671875 633.265625 L 185.03125 292.742188 Z M 525.550781 195.097656 " clip-rule="nonzero"/></clipPath><clipPath id="1e886de60f"><path d="M 185 195 L 624 195 L 624 634 L 185 634 Z M 185 195 " clip-rule="nonzero"/></clipPath><clipPath id="886425d1e7"><path d="M 525.550781 195.097656 L 623.195312 535.621094 L 282.671875 633.265625 L 185.03125 292.742188 Z M 525.550781 195.097656 " clip-rule="nonzero"/></clipPath><clipPath id="ed2b40391e"><path d="M 525.550781 195.097656 L 623.195312 535.621094 L 282.671875 633.265625 L 185.03125 292.742188 Z M 525.550781 195.097656 " clip-rule="nonzero"/></clipPath><clipPath id="685164ecd7"><path d="M 201 164 L 640 164 L 640 603 L 201 603 Z M 201 164 " clip-rule="nonzero"/></clipPath><clipPath id="50fcecc502"><path d="M 542.257812 164.636719 L 639.898438 505.160156 L 299.375 602.800781 L 201.734375 262.28125 Z M 542.257812 164.636719 " clip-rule="nonzero"/></clipPath><clipPath id="f2b63d6802"><path d="M 306 149 L 621 149 L 621 464 L 306 464 Z M 306 149 " clip-rule="nonzero"/></clipPath><clipPath id="0cb15a575b"><path d="M 393.449219 62.519531 L 707.894531 236.820312 L 533.59375 551.265625 L 219.148438 376.964844 Z M 393.449219 62.519531 " clip-rule="nonzero"/></clipPath><clipPath id="3f6c6d4802"><path d="M 393.449219 62.519531 L 707.894531 236.820312 L 533.59375 551.265625 L 219.148438 376.964844 Z M 393.449219 62.519531 " clip-rule="nonzero"/></clipPath></defs><g clip-path="url(#4cc132371f)"><g clip-path="url(#6f39f61684)"><path fill="#2d13aa" d="M 509.75 225.582031 L 607.394531 566.105469 L 266.871094 663.75 L 169.226562 323.226562 Z M 509.75 225.582031 " fill-opacity="1" fill-rule="nonzero"/></g></g><g clip-path="url(#446b1295a5)"><g clip-path="url(#ae75f530ce)"><path fill="#ffffff" d="M 525.550781 195.097656 L 623.195312 535.621094 L 282.671875 633.265625 L 185.03125 292.742188 Z M 525.550781 195.097656 " fill-opacity="1" fill-rule="nonzero"/></g></g><g clip-path="url(#1e886de60f)"><g clip-path="url(#886425d1e7)"><g clip-path="url(#ed2b40391e)"><path stroke-linecap="butt" transform="matrix(0.207752, 0.724517, -0.724517, 0.207752, 525.552697, 195.098449)" fill="none" stroke-linejoin="miter" d="M -0.00171114 0.0021536 L 469.998979 0.000862792 L 470.000269 470.001552 L 0.0010082 469.997861 Z M -0.00171114 0.0021536 " stroke="#2d13aa" stroke-width="1.990142" stroke-opacity="1" stroke-miterlimit="4"/></g></g></g><g clip-path="url(#685164ecd7)"><g clip-path="url(#50fcecc502)"><path fill="#2d13aa" d="M 542.257812 164.636719 L 639.898438 505.160156 L 299.375 602.800781 L 201.734375 262.28125 Z M 542.257812 164.636719 " fill-opacity="1" fill-rule="nonzero"/></g></g><g clip-path="url(#f2b63d6802)"><g clip-path="url(#0cb15a575b)"><g clip-path="url(#3f6c6d4802)"><path fill="#ffffff" d="M 487.296875 263.878906 L 531.871094 419.316406 L 487.460938 432.039062 L 464.632812 352.429688 L 407.84375 454.882812 L 376.433594 463.886719 L 367.425781 432.476562 L 424.214844 330.027344 L 344.589844 352.847656 L 331.855469 308.429688 Z M 550.640625 149.671875 L 306.382812 219.59375 L 319.113281 263.992188 L 518.976562 206.796875 L 576.246094 406.523438 L 620.640625 393.792969 Z M 550.640625 149.671875 " fill-opacity="1" fill-rule="nonzero"/></g></g></g></svg>